<svg version="1.1" id="Layer_1" xmlns="http://www.w3.org/2000/svg" xmlns:xlink="http://www.w3.org/1999/xlink" x="0px" y="0px"
	 width="100%" viewBox="0 0 254 254" enable-background="new 0 0 254 254" xml:space="preserve">
<path fill="#FDFDFB" opacity="1.000000" stroke="none" 
	d="
M176.000000,255.000000 
	C117.333336,255.000000 59.166672,255.000000 1.000008,255.000000 
	C1.000005,170.333344 1.000005,85.666687 1.000003,1.000019 
	C85.666649,1.000013 170.333298,1.000013 254.999969,1.000006 
	C254.999969,85.666649 254.999969,170.333298 254.999985,254.999969 
	C228.833328,255.000000 202.666672,255.000000 176.000000,255.000000 
M80.984039,57.970749 
	C80.984039,57.970749 80.965279,58.039219 80.371407,57.980804 
	C79.893562,58.283127 79.415710,58.585445 78.238861,59.031189 
	C66.694916,64.718559 56.414043,72.189842 47.563793,81.495811 
	C36.259506,93.382172 27.456352,106.855698 22.240332,123.143562 
	C22.107100,123.740196 21.973866,124.336823 21.642338,125.242729 
	C21.642338,125.242729 21.621729,125.609535 21.217955,125.962547 
	C21.186966,126.306519 21.155979,126.650497 20.898287,127.660675 
	C20.597935,128.782547 20.297581,129.904419 19.599356,131.209000 
	C19.376282,131.515259 19.427954,131.764725 19.436279,132.685898 
	C19.354939,133.472076 19.273598,134.258240 18.734333,135.542480 
	C18.628616,136.387741 18.522900,137.232986 18.186954,138.705627 
	C18.160105,139.148361 18.133253,139.591080 17.596235,140.352997 
	C17.628494,140.899109 17.660751,141.445206 17.427345,142.707932 
	C17.364386,143.468613 17.301426,144.229279 16.962070,145.456650 
	C16.989737,145.635315 17.017401,145.813995 16.913973,146.847229 
	C16.893133,148.859207 16.872295,150.871201 16.506159,153.111328 
	C16.458567,153.240494 16.338037,153.401245 16.377615,153.492676 
	C16.479523,153.728104 16.652323,153.932831 16.703852,154.713852 
	C16.732368,155.092606 16.760883,155.471359 16.332523,156.448349 
	C16.415436,157.923981 16.498348,159.399612 16.398802,161.672638 
	C16.450136,162.483704 16.501471,163.294785 16.172937,164.868103 
	C16.303499,166.537445 16.434061,168.206787 16.420444,170.621643 
	C16.444662,171.375488 16.468880,172.129318 15.873042,173.315628 
	C5.992638,175.607193 5.069828,182.848221 6.012472,191.133759 
	C6.105864,191.954651 5.850509,192.898880 6.178288,193.584457 
	C6.470271,194.195175 7.346415,194.526596 8.485672,195.426971 
	C10.342175,196.279312 12.198679,197.131668 14.202918,198.408630 
	C14.202918,198.408630 14.606082,198.603622 14.606082,198.603622 
	C14.606082,198.603622 14.997683,198.386169 15.735265,198.731216 
	C27.687744,200.739838 39.570759,203.467010 51.604950,204.630356 
	C98.932724,209.205475 146.361618,209.422241 193.738586,205.632187 
	C209.596237,204.363617 225.345306,201.445831 241.043060,198.703964 
	C244.382004,198.120758 247.281616,195.022232 250.856323,192.392761 
	C251.967239,183.784302 252.249390,175.598557 241.102692,173.221191 
	C240.963730,173.191544 240.856583,173.012756 240.854370,171.988510 
	C240.709763,164.639847 240.565155,157.291199 240.766174,149.299957 
	C240.531860,148.180283 240.297531,147.060593 240.020630,145.259094 
	C239.866882,144.831421 239.713135,144.403748 239.753403,143.531052 
	C239.744934,143.177826 239.594162,142.902405 239.318527,141.856949 
	C237.510483,127.129112 232.612473,113.517479 224.658646,100.597763 
	C224.531830,100.261108 224.290924,100.122696 223.735367,99.514145 
	C221.505035,96.534340 219.274704,93.554535 217.010788,89.923874 
	C212.579346,85.214676 208.313309,80.335358 203.681915,75.831772 
	C194.121353,66.535057 182.376328,60.676102 170.461700,55.063255 
	C168.644455,54.207180 167.570663,51.843670 166.043564,50.284580 
	C163.709274,47.901390 161.639740,44.249481 158.831085,43.507038 
	C142.754547,39.257347 126.310997,38.422832 109.910843,41.254398 
	C101.837570,42.648293 92.038635,42.263241 90.014191,53.746159 
	C89.946167,54.131943 89.326859,54.420536 88.211693,54.793518 
	C87.490356,54.992729 86.769028,55.191940 85.576874,55.262104 
	C85.213821,55.360954 85.019493,55.598133 84.343887,56.110672 
	C83.565857,56.533352 82.787819,56.956028 81.561035,57.282761 
	C81.221252,57.390705 81.052399,57.623028 80.984039,57.970749 
z"/>
<path fill="#FCEE4C" opacity="1.000000" stroke="none" 
	d="
M7.964750,194.981293 
	C7.346415,194.526596 6.470271,194.195175 6.178288,193.584457 
	C5.850509,192.898880 6.105864,191.954651 6.012472,191.133759 
	C5.069828,182.848221 5.992638,175.607193 16.561148,173.110565 
	C26.880955,171.418213 36.495602,169.805862 46.150524,168.488800 
	C52.308361,167.648788 58.525867,167.246155 64.694519,166.649551 
	C64.822693,165.200684 64.975189,164.377914 64.956093,163.559143 
	C64.603088,148.426071 64.918480,133.306885 68.077850,118.455406 
	C70.375587,107.654221 72.722618,96.782753 76.242477,86.345566 
	C79.607254,76.368256 84.531204,66.918205 88.714622,57.212608 
	C89.025520,56.491318 88.891640,55.578312 88.964523,54.754433 
	C89.326859,54.420536 89.946167,54.131943 90.014191,53.746159 
	C92.038635,42.263241 101.837570,42.648293 109.910843,41.254398 
	C126.310997,38.422832 142.754547,39.257347 158.831085,43.507038 
	C161.639740,44.249481 163.709274,47.901390 166.043564,50.284580 
	C167.570663,51.843670 168.644455,54.207180 170.461700,55.063255 
	C182.376328,60.676102 194.121353,66.535057 203.681915,75.831772 
	C208.313309,80.335358 212.579346,85.214676 217.026031,90.707123 
	C218.893875,101.383904 220.911621,111.249992 222.560501,121.177353 
	C225.056610,136.205704 227.351044,151.275787 225.098465,166.578735 
	C224.697754,169.300842 225.332352,171.028305 228.477615,171.324371 
	C232.576508,171.710220 236.650101,172.364700 240.734589,172.903580 
	C240.856583,173.012756 240.963730,173.191544 241.102692,173.221191 
	C252.249390,175.598557 251.967239,183.784302 250.254318,192.627747 
	C244.914581,191.016403 240.306244,188.631439 235.407669,187.454575 
	C228.676834,185.837494 221.721130,185.165955 214.871063,184.033096 
	C206.771378,182.693604 198.730438,182.822464 192.263489,188.436066 
	C183.178055,196.322647 172.875107,200.066345 160.956329,200.031036 
	C138.480469,199.964462 116.004211,200.001877 93.528168,200.034073 
	C85.849724,200.045074 78.844315,197.717957 72.353226,193.853409 
	C67.705345,191.086227 63.629829,186.766052 58.659817,185.288254 
	C53.033745,183.615402 46.611061,183.575241 40.683975,184.212662 
	C32.332985,185.110779 24.018011,186.910904 15.899973,189.109390 
	C12.941786,189.910507 10.592072,192.958450 7.964750,194.981293 
M136.576248,90.394577 
	C136.576248,90.394577 136.530807,90.325523 136.832535,89.602341 
	C135.933502,88.358910 135.034470,87.115486 133.994034,85.271240 
	C133.556824,84.902809 133.119614,84.534370 132.791397,84.124840 
	C132.791397,84.124840 132.762711,84.237732 132.918777,83.437576 
	C133.058640,80.458641 132.338593,78.186012 128.912918,78.038010 
	C128.912918,78.038010 128.696884,78.309883 128.833618,77.783188 
	C128.683548,77.504387 128.533493,77.225586 128.383423,76.946785 
	C128.286331,77.339516 128.189240,77.732239 127.469513,78.465797 
	C126.261925,80.930351 125.054337,83.394905 123.227196,86.165695 
	C119.843109,91.219940 116.300514,96.177078 113.125603,101.359474 
	C110.632545,105.428864 108.593880,109.776619 106.021980,114.376007 
	C105.968102,114.533783 105.914223,114.691559 105.220032,115.154846 
	C102.031471,117.332802 100.994926,119.569435 104.661919,122.492455 
	C104.443123,123.993927 104.224335,125.495407 103.399117,127.293396 
	C100.064796,130.242950 96.548767,133.096695 97.214355,137.565353 
	C100.207153,137.331635 102.926613,137.119263 105.774940,136.896835 
	C105.420189,144.494156 106.014709,145.005096 112.946114,144.956879 
	C112.266396,149.971741 114.565514,152.831604 119.912140,154.166992 
	C120.894142,155.157028 121.876152,156.147079 123.095764,157.779129 
	C125.834740,159.214142 124.564819,164.395874 129.757019,164.040558 
	C130.354248,163.410080 130.951477,162.779602 131.976257,161.658966 
	C132.445084,160.480438 132.913910,159.301910 133.919647,157.740997 
	C134.938919,156.070419 135.906082,154.365219 136.987793,152.736099 
	C139.636368,148.747238 142.337845,144.793503 145.731354,140.908554 
	C148.377533,137.843628 151.023697,134.778717 153.669861,131.713791 
	C153.400208,131.203506 153.130539,130.693222 152.860870,130.182938 
	C150.919296,130.831635 148.977737,131.480331 146.940277,131.474609 
	C145.547043,131.056458 144.153793,130.638321 142.041397,130.004333 
	C144.204544,128.812393 145.989182,128.087204 147.451385,126.948120 
	C148.816620,125.884605 149.839462,124.381561 151.632965,122.756554 
	C153.042297,121.319901 155.878113,119.374565 155.582611,118.545876 
	C154.820496,116.408806 152.673737,114.765503 151.013519,112.182243 
	C150.203064,109.198860 150.079056,105.752548 146.043640,104.153595 
	C144.272598,101.844177 142.501572,99.534752 140.742188,97.036224 
	C140.742188,97.036224 140.761505,97.223946 140.911514,96.485703 
	C139.985901,95.314400 139.060287,94.143097 137.864838,92.737228 
	C137.864838,92.737228 137.813156,92.383461 138.043732,91.791008 
	C137.550751,91.352829 137.057785,90.914642 136.576248,90.394577 
z"/>
<path fill="#F3DA0E" opacity="1.000000" stroke="none" 
	d="
M88.588112,54.773975 
	C88.891640,55.578312 89.025520,56.491318 88.714622,57.212608 
	C84.531204,66.918205 79.607254,76.368256 76.242477,86.345566 
	C72.722618,96.782753 70.375587,107.654221 68.077850,118.455406 
	C64.918480,133.306885 64.603088,148.426071 64.956093,163.559143 
	C64.975189,164.377914 64.822693,165.200684 64.694519,166.649551 
	C58.525867,167.246155 52.308361,167.648788 46.150524,168.488800 
	C36.495602,169.805862 26.880955,171.418213 16.871174,172.894333 
	C16.468880,172.129318 16.444662,171.375488 16.663311,169.970093 
	C16.788389,167.580963 16.670597,165.843414 16.552807,164.105850 
	C16.501471,163.294785 16.450136,162.483704 16.669693,160.970779 
	C16.890188,158.795990 16.839794,157.323044 16.789400,155.850113 
	C16.760883,155.471359 16.732368,155.092606 16.831352,154.118073 
	C16.923054,153.309250 16.887257,153.096207 16.851458,152.883179 
	C16.872295,150.871201 16.893133,148.859207 17.147999,146.353546 
	C17.450684,145.761841 17.597534,145.634109 17.573650,145.571198 
	C17.495323,145.364777 17.354977,145.181885 17.238464,144.989960 
	C17.301426,144.229279 17.364386,143.468613 17.715824,142.213974 
	C18.038336,141.157944 18.072369,140.595886 18.106403,140.033813 
	C18.133253,139.591080 18.160105,139.148361 18.588039,138.327301 
	C19.056835,136.980774 19.124546,136.012604 19.192257,135.044418 
	C19.273598,134.258240 19.354939,133.472076 19.696136,132.188950 
	C20.066471,131.476181 20.080215,131.254272 19.997227,131.026291 
	C20.297581,129.904419 20.597935,128.782547 21.231869,127.162437 
	C21.584211,126.312645 21.602970,125.961090 21.621729,125.609535 
	C21.621729,125.609535 21.642338,125.242729 22.043377,124.937866 
	C22.535870,124.001106 22.627327,123.369209 22.718784,122.737320 
	C27.456352,106.855698 36.259506,93.382172 47.563793,81.495811 
	C56.414043,72.189842 66.694916,64.718559 78.890152,59.009056 
	C80.016060,58.671021 80.490669,58.355122 80.965279,58.039219 
	C80.965279,58.039219 80.984039,57.970749 81.220978,57.956055 
	C81.731995,57.842194 81.915955,57.654644 82.009789,57.378704 
	C82.787819,56.956028 83.565857,56.533352 84.885239,56.033592 
	C85.722549,55.865707 85.929581,55.677254 86.047691,55.391151 
	C86.769028,55.191940 87.490356,54.992729 88.588112,54.773975 
z"/>
<path fill="#F1DA15" opacity="1.000000" stroke="none" 
	d="
M8.225211,195.204132 
	C10.592072,192.958450 12.941786,189.910507 15.899973,189.109390 
	C24.018011,186.910904 32.332985,185.110779 40.683975,184.212662 
	C46.611061,183.575241 53.033745,183.615402 58.659817,185.288254 
	C63.629829,186.766052 67.705345,191.086227 72.353226,193.853409 
	C78.844315,197.717957 85.849724,200.045074 93.528168,200.034073 
	C116.004211,200.001877 138.480469,199.964462 160.956329,200.031036 
	C172.875107,200.066345 183.178055,196.322647 192.263489,188.436066 
	C198.730438,182.822464 206.771378,182.693604 214.871063,184.033096 
	C221.721130,185.165955 228.676834,185.837494 235.407669,187.454575 
	C240.306244,188.631439 244.914581,191.016403 250.017975,192.972656 
	C247.281616,195.022232 244.382004,198.120758 241.043060,198.703964 
	C225.345306,201.445831 209.596237,204.363617 193.738586,205.632187 
	C146.361618,209.422241 98.932724,209.205475 51.604950,204.630356 
	C39.570759,203.467010 27.687744,200.739838 15.241520,198.432678 
	C14.537425,197.989807 14.306561,197.939758 14.055182,197.984009 
	C12.198679,197.131668 10.342175,196.279312 8.225211,195.204132 
z"/>
<path fill="#F1DA13" opacity="1.000000" stroke="none" 
	d="
M240.794479,172.446045 
	C236.650101,172.364700 232.576508,171.710220 228.477615,171.324371 
	C225.332352,171.028305 224.697754,169.300842 225.098465,166.578735 
	C227.351044,151.275787 225.056610,136.205704 222.560501,121.177353 
	C220.911621,111.249992 218.893875,101.383904 217.042816,91.032555 
	C219.274704,93.554535 221.505035,96.534340 223.879288,100.031662 
	C224.138596,100.789429 224.322205,100.953133 224.574036,101.040291 
	C232.612473,113.517479 237.510483,127.129112 239.235535,142.508148 
	C239.142288,143.504349 239.277908,143.776596 239.559387,143.976074 
	C239.713135,144.403748 239.866882,144.831421 239.972870,145.943573 
	C240.090256,147.732895 240.255402,148.837708 240.420547,149.942535 
	C240.565155,157.291199 240.709763,164.639847 240.794479,172.446045 
M231.262161,140.588242 
	C231.367935,141.562515 231.473709,142.536789 231.579483,143.511047 
	C232.071075,143.548477 232.562668,143.585892 233.054260,143.623306 
	C233.759415,140.362579 234.464569,137.101852 235.169724,133.841125 
	C234.506104,133.697601 233.842468,133.554077 233.178848,133.410553 
	C232.636414,135.563995 232.093964,137.717438 231.262161,140.588242 
z"/>
<path fill="#FCEE4C" opacity="1.000000" stroke="none" 
	d="
M16.362871,164.486969 
	C16.670597,165.843414 16.788389,167.580963 16.735401,169.597321 
	C16.434061,168.206787 16.303499,166.537445 16.362871,164.486969 
z"/>
<path fill="#FCEE4C" opacity="1.000000" stroke="none" 
	d="
M16.560963,156.149231 
	C16.839794,157.323044 16.890188,158.795990 16.760921,160.572083 
	C16.498348,159.399612 16.415436,157.923981 16.560963,156.149231 
z"/>
<path fill="#FCEE4C" opacity="1.000000" stroke="none" 
	d="
M18.963295,135.293457 
	C19.124546,136.012604 19.056835,136.980774 18.703156,138.013611 
	C18.522900,137.232986 18.628616,136.387741 18.963295,135.293457 
z"/>
<path fill="#FCEE4C" opacity="1.000000" stroke="none" 
	d="
M240.593353,149.621246 
	C240.255402,148.837708 240.090256,147.732895 239.994156,146.284485 
	C240.297531,147.060593 240.531860,148.180283 240.593353,149.621246 
z"/>
<path fill="#FCEE4C" opacity="1.000000" stroke="none" 
	d="
M17.851318,140.193405 
	C18.072369,140.595886 18.038336,141.157944 17.848656,141.855667 
	C17.660751,141.445206 17.628494,140.899109 17.851318,140.193405 
z"/>
<path fill="#FCEE4C" opacity="1.000000" stroke="none" 
	d="
M22.479557,122.940445 
	C22.627327,123.369209 22.535870,124.001106 22.142525,124.783226 
	C21.973866,124.336823 22.107100,123.740196 22.479557,122.940445 
z"/>
<path fill="#FCEE4C" opacity="1.000000" stroke="none" 
	d="
M80.668343,58.010010 
	C80.490669,58.355122 80.016060,58.671021 79.239655,58.937344 
	C79.415710,58.585445 79.893562,58.283127 80.668343,58.010010 
z"/>
<path fill="#FCEE4C" opacity="1.000000" stroke="none" 
	d="
M14.129050,198.196320 
	C14.306561,197.939758 14.537425,197.989807 14.872728,198.260162 
	C14.997683,198.386169 14.606082,198.603622 14.606082,198.603622 
	C14.606082,198.603622 14.202918,198.408630 14.129050,198.196320 
z"/>
<path fill="#FCEE4C" opacity="1.000000" stroke="none" 
	d="
M16.678808,152.997253 
	C16.887257,153.096207 16.923054,153.309250 16.877825,153.836060 
	C16.652323,153.932831 16.479523,153.728104 16.377615,153.492676 
	C16.338037,153.401245 16.458567,153.240494 16.678808,152.997253 
z"/>
<path fill="#FCEE4C" opacity="1.000000" stroke="none" 
	d="
M17.100267,145.223297 
	C17.354977,145.181885 17.495323,145.364777 17.573650,145.571198 
	C17.597534,145.634109 17.450684,145.761841 17.213547,145.926270 
	C17.017401,145.813995 16.989737,145.635315 17.100267,145.223297 
z"/>
<path fill="#FCEE4C" opacity="1.000000" stroke="none" 
	d="
M239.656403,143.753571 
	C239.277908,143.776596 239.142288,143.504349 239.226807,142.932098 
	C239.594162,142.902405 239.744934,143.177826 239.656403,143.753571 
z"/>
<path fill="#FCEE4C" opacity="1.000000" stroke="none" 
	d="
M19.798292,131.117645 
	C20.080215,131.254272 20.066471,131.476181 19.855183,131.824707 
	C19.427954,131.764725 19.376282,131.515259 19.798292,131.117645 
z"/>
<path fill="#FCEE4C" opacity="1.000000" stroke="none" 
	d="
M21.419842,125.786041 
	C21.602970,125.961090 21.584211,126.312645 21.345222,126.829330 
	C21.155979,126.650497 21.186966,126.306519 21.419842,125.786041 
z"/>
<path fill="#FCEE4C" opacity="1.000000" stroke="none" 
	d="
M224.616333,100.819031 
	C224.322205,100.953133 224.138596,100.789429 223.979568,100.365852 
	C224.290924,100.122696 224.531830,100.261108 224.616333,100.819031 
z"/>
<path fill="#FCEE4C" opacity="1.000000" stroke="none" 
	d="
M81.785416,57.330734 
	C81.915955,57.654644 81.731995,57.842194 81.256195,57.960541 
	C81.052399,57.623028 81.221252,57.390705 81.785416,57.330734 
z"/>
<path fill="#FCEE4C" opacity="1.000000" stroke="none" 
	d="
M85.812286,55.326630 
	C85.929581,55.677254 85.722549,55.865707 85.210236,55.965080 
	C85.019493,55.598133 85.213821,55.360954 85.812286,55.326630 
z"/>
<path fill="#F6EC53" opacity="1.000000" stroke="none" 
	d="
M112.858078,144.123856 
	C106.014709,145.005096 105.420189,144.494156 105.774940,136.896835 
	C102.926613,137.119263 100.207153,137.331635 97.214355,137.565353 
	C96.548767,133.096695 100.064796,130.242950 104.028831,127.192307 
	C105.642372,128.149338 106.626198,129.207458 107.543442,130.193970 
	C111.885445,129.566666 109.907913,127.094009 109.394287,124.961853 
	C112.832573,126.336678 115.905754,127.671150 119.102661,129.343109 
	C121.060715,130.547974 122.841095,131.571930 124.747902,132.229019 
	C126.070297,132.684723 127.566795,132.635239 129.365677,132.891815 
	C136.171143,129.494904 142.596436,126.017624 149.244812,122.677422 
	C149.982941,122.900322 150.497986,122.986153 151.013016,123.071976 
	C149.839462,124.381561 148.816620,125.884605 147.451385,126.948120 
	C145.989182,128.087204 144.204544,128.812393 142.041397,130.004333 
	C144.153793,130.638321 145.547043,131.056458 146.832443,132.098541 
	C144.647049,134.402740 142.569489,136.082977 140.336243,137.781769 
	C140.180557,137.800308 139.983124,138.043930 139.720993,138.076935 
	C139.231934,138.359314 139.005005,138.608673 138.829666,138.862335 
	C138.881256,138.866638 138.838257,138.772446 138.464905,138.838745 
	C134.385529,140.329315 130.679520,141.753601 126.650314,143.008820 
	C119.572861,139.183075 112.818604,135.526398 105.936432,131.610703 
	C105.586861,131.894882 105.365204,132.438095 105.176643,133.334381 
	C107.824287,137.109909 110.438835,140.532349 113.004967,143.997543 
	C112.956551,144.040283 112.858078,144.123856 112.858078,144.123856 
z"/>
<path fill="#28251C" opacity="1.000000" stroke="none" 
	d="
M139.983124,138.043930 
	C139.983124,138.043930 140.180557,137.800308 140.622986,137.916977 
	C142.864868,137.568634 144.664322,137.103622 146.385681,136.658783 
	C145.896851,138.148071 145.457428,139.486847 145.018005,140.825623 
	C142.337845,144.793503 139.636368,148.747238 136.987793,152.736099 
	C135.906082,154.365219 134.938919,156.070419 133.301239,157.921173 
	C131.678589,158.995667 130.734207,159.979523 129.626892,160.719559 
	C129.359406,160.898331 128.553131,160.270935 128.221436,159.864716 
	C128.299988,159.134888 128.151733,158.554626 128.004272,157.736252 
	C128.005051,157.498138 128.004883,157.021912 128.291901,156.735611 
	C128.714691,153.618195 128.850479,150.787094 129.038315,147.618622 
	C130.361877,146.080536 131.592957,144.833054 132.914459,143.690125 
	C134.855148,142.011688 136.860474,140.407990 138.838257,138.772446 
	C138.838257,138.772446 138.881256,138.866638 139.087372,138.824661 
	C139.523361,138.536438 139.753235,138.290176 139.983124,138.043930 
z"/>
<path fill="#2A290B" opacity="1.000000" stroke="none" 
	d="
M106.353363,114.000717 
	C108.593880,109.776619 110.632545,105.428864 113.125603,101.359474 
	C116.300514,96.177078 119.843109,91.219940 123.608612,86.078384 
	C123.990021,85.991081 124.138626,86.116646 124.229263,86.423004 
	C124.044731,88.093407 124.117805,89.668991 123.438385,90.787476 
	C118.710220,98.571083 113.825966,106.259880 108.661751,113.983551 
	C107.672279,113.992256 107.012825,113.996483 106.353363,114.000717 
z"/>
<path fill="#242107" opacity="1.000000" stroke="none" 
	d="
M118.978935,129.005630 
	C115.905754,127.671150 112.832573,126.336678 109.261002,124.665802 
	C107.520050,123.534424 106.277489,122.739449 105.034920,121.944473 
	C100.994926,119.569435 102.031471,117.332802 105.617172,115.359589 
	C107.959236,121.958229 114.340225,122.286919 118.966843,125.426598 
	C118.978317,126.884308 118.978622,127.944969 118.978935,129.005630 
z"/>
<path fill="#131727" opacity="1.000000" stroke="none" 
	d="
M118.955673,125.029549 
	C114.340225,122.286919 107.959236,121.958229 105.937325,115.206833 
	C105.914223,114.691559 105.968102,114.533783 106.187668,114.188362 
	C107.012825,113.996483 107.672279,113.992256 108.812317,114.291145 
	C112.589645,116.932442 115.849899,119.324570 119.196617,121.588890 
	C121.257996,122.983574 121.998711,124.086609 118.955673,125.029549 
z"/>
<path fill="#302C0B" opacity="1.000000" stroke="none" 
	d="
M145.374680,140.867096 
	C145.457428,139.486847 145.896851,138.148071 146.385681,136.658783 
	C144.664322,137.103622 142.864868,137.568634 140.778687,137.898438 
	C142.569489,136.082977 144.647049,134.402740 146.880386,132.425766 
	C148.977737,131.480331 150.919296,130.831635 152.860870,130.182938 
	C153.130539,130.693222 153.400208,131.203506 153.669861,131.713791 
	C151.023697,134.778717 148.377533,137.843628 145.374680,140.867096 
z"/>
<path fill="#1B1910" opacity="1.000000" stroke="none" 
	d="
M122.858154,157.137115 
	C121.876152,156.147079 120.894142,155.157028 119.633270,153.668579 
	C119.176773,152.505081 118.999146,151.840012 118.889427,151.106262 
	C118.957336,151.037598 119.091850,150.898987 119.446396,150.857025 
	C121.599289,148.595123 123.478554,146.666794 126.453262,148.674789 
	C125.276108,151.560837 124.185043,154.235840 123.034973,156.967346 
	C122.975960,157.023849 122.858154,157.137115 122.858154,157.137115 
z"/>
<path fill="#2F2908" opacity="1.000000" stroke="none" 
	d="
M137.813156,92.383461 
	C137.813156,92.383461 137.864838,92.737228 138.046478,93.172539 
	C139.072571,94.813217 139.917038,96.018585 140.761505,97.223946 
	C140.761505,97.223946 140.742188,97.036224 140.816589,97.460686 
	C141.994537,99.848427 143.098114,101.811699 143.812408,103.834824 
	C138.003540,99.799644 135.810776,93.868195 134.424805,87.791153 
	C135.300476,88.746147 135.915634,89.535835 136.530807,90.325523 
	C136.530807,90.325523 136.576248,90.394577 136.650421,90.719452 
	C137.087433,91.490707 137.450302,91.937080 137.813156,92.383461 
z"/>
<path fill="#F7EE42" opacity="1.000000" stroke="none" 
	d="
M104.848419,122.218460 
	C106.277489,122.739449 107.520050,123.534424 108.895905,124.625458 
	C109.907913,127.094009 111.885445,129.566666 107.543442,130.193970 
	C106.626198,129.207458 105.642372,128.149338 104.332047,127.044052 
	C104.224335,125.495407 104.443123,123.993927 104.848419,122.218460 
z"/>
<path fill="#E5DF6E" opacity="1.000000" stroke="none" 
	d="
M151.322998,122.914261 
	C150.497986,122.986153 149.982941,122.900322 149.394928,122.358536 
	C150.870453,120.244087 154.130508,119.300285 151.745850,115.716141 
	C151.374420,114.698334 151.037979,113.978416 150.796417,113.175354 
	C150.891281,113.092216 151.080124,112.924942 151.080124,112.924942 
	C152.673737,114.765503 154.820496,116.408806 155.582611,118.545876 
	C155.878113,119.374565 153.042297,121.319901 151.322998,122.914261 
z"/>
<path fill="#2F2908" opacity="1.000000" stroke="none" 
	d="
M123.918388,85.925262 
	C125.054337,83.394905 126.261925,80.930351 127.914421,78.397476 
	C128.359329,78.329155 128.696884,78.309883 128.696884,78.309883 
	C128.696884,78.309883 128.912918,78.038010 128.892242,78.490646 
	C130.168610,80.708099 131.465652,82.472916 132.762711,84.237732 
	C132.762711,84.237732 132.791397,84.124840 132.786652,84.436951 
	C132.894989,85.123123 133.008072,85.497192 132.765228,85.876617 
	C131.169312,84.510551 129.929306,83.139122 128.365845,81.409943 
	C127.880287,82.663536 127.437485,83.806755 126.798203,85.206444 
	C125.780685,85.680832 124.959656,85.898743 124.138626,86.116646 
	C124.138626,86.116646 123.990021,85.991081 123.918388,85.925262 
z"/>
<path fill="#1B1910" opacity="1.000000" stroke="none" 
	d="
M127.994629,160.014267 
	C128.553131,160.270935 129.359406,160.898331 129.626892,160.719559 
	C130.734207,159.979523 131.678589,158.995667 133.032776,158.112366 
	C132.913910,159.301910 132.445084,160.480438 131.407745,161.918381 
	C130.250946,162.843887 129.662659,163.509995 129.074387,164.176086 
	C124.564819,164.395874 125.834740,159.214142 122.976959,157.458130 
	C122.858154,157.137115 122.975960,157.023849 123.368317,157.029877 
	C124.841042,157.356659 125.921410,157.677414 127.021881,158.296753 
	C127.359535,159.068298 127.677086,159.541290 127.994629,160.014267 
z"/>
<path fill="#F6EC53" opacity="1.000000" stroke="none" 
	d="
M118.821518,151.174927 
	C118.999146,151.840012 119.176773,152.505081 119.372284,153.517273 
	C114.565514,152.831604 112.266396,149.971741 112.902100,144.540375 
	C112.858078,144.123856 112.956551,144.040283 113.284927,144.175354 
	C115.349365,146.598587 117.085442,148.886765 118.821518,151.174927 
z"/>
<path fill="#E5DF6E" opacity="1.000000" stroke="none" 
	d="
M146.104477,104.903023 
	C150.079056,105.752548 150.203064,109.198860 151.046814,112.553589 
	C151.080124,112.924942 150.891281,113.092216 150.543243,112.979836 
	C149.207626,111.498047 148.220078,110.128647 147.187439,108.869232 
	C147.142380,108.979233 147.273911,108.781189 147.196106,108.467438 
	C146.647797,107.189102 146.177307,106.224525 145.806335,105.170822 
	C145.905838,105.081696 146.104477,104.903023 146.104477,104.903023 
z"/>
<path fill="#E5DF6E" opacity="1.000000" stroke="none" 
	d="
M144.201675,103.774979 
	C143.098114,101.811699 141.994537,99.848427 140.810760,97.555237 
	C142.501572,99.534752 144.272598,101.844177 146.074066,104.528305 
	C146.104477,104.903023 145.905838,105.081696 145.576355,105.026657 
	C144.894363,104.576897 144.541824,104.182175 144.175049,103.786316 
	C144.160782,103.785179 144.201675,103.774979 144.201675,103.774979 
z"/>
<path fill="#EFE770" opacity="1.000000" stroke="none" 
	d="
M132.840744,83.837654 
	C131.465652,82.472916 130.168610,80.708099 128.788071,78.625023 
	C132.338593,78.186012 133.058640,80.458641 132.840744,83.837654 
z"/>
<path fill="#EFE770" opacity="1.000000" stroke="none" 
	d="
M136.681671,89.963928 
	C135.915634,89.535835 135.300476,88.746147 134.399445,87.609283 
	C134.113586,87.262108 133.848358,87.007835 133.854492,86.787476 
	C133.860611,86.567123 133.863800,86.126259 133.931641,86.062630 
	C133.999466,85.999001 134.135437,85.872063 134.135437,85.872063 
	C135.034470,87.115486 135.933502,88.358910 136.681671,89.963928 
z"/>
<path fill="#E5DF6E" opacity="1.000000" stroke="none" 
	d="
M140.836517,96.854828 
	C139.917038,96.018585 139.072571,94.813217 138.181396,93.289825 
	C139.060287,94.143097 139.985901,95.314400 140.836517,96.854828 
z"/>
<path fill="#EFE770" opacity="1.000000" stroke="none" 
	d="
M137.928436,92.087234 
	C137.450302,91.937080 137.087433,91.490707 136.644684,90.760391 
	C137.057785,90.914642 137.550751,91.352829 137.928436,92.087234 
z"/>
<path fill="#28251C" opacity="1.000000" stroke="none" 
	d="
M129.415710,164.108322 
	C129.662659,163.509995 130.250946,162.843887 131.193970,162.163452 
	C130.951477,162.779602 130.354248,163.410080 129.415710,164.108322 
z"/>
<path fill="#EFE770" opacity="1.000000" stroke="none" 
	d="
M128.765259,78.046539 
	C128.696884,78.309883 128.359329,78.329155 128.225739,78.227066 
	C128.189240,77.732239 128.286331,77.339516 128.383423,76.946785 
	C128.533493,77.225586 128.683548,77.504387 128.765259,78.046539 
z"/>
<path fill="#EFE770" opacity="1.000000" stroke="none" 
	d="
M133.121140,85.871262 
	C133.008072,85.497192 132.894989,85.123123 132.732162,84.457497 
	C133.119614,84.534370 133.556824,84.902809 134.064728,85.571655 
	C134.135437,85.872063 133.999466,85.999001 133.737350,85.988205 
	C133.475235,85.977417 133.082474,85.840012 133.072968,85.871124 
	C133.063461,85.902237 133.121140,85.871262 133.121140,85.871262 
z"/>
<path fill="#F6D61B" opacity="1.000000" stroke="none" 
	d="
M231.406830,140.229553 
	C232.093964,137.717438 232.636414,135.563995 233.178848,133.410553 
	C233.842468,133.554077 234.506104,133.697601 235.169724,133.841125 
	C234.464569,137.101852 233.759415,140.362579 233.054260,143.623306 
	C232.562668,143.585892 232.071075,143.548477 231.579483,143.511047 
	C231.473709,142.536789 231.367935,141.562515 231.406830,140.229553 
z"/>
<path fill="#212122" opacity="1.000000" stroke="none" 
	d="
M133.848358,87.007835 
	C133.848358,87.007835 134.113586,87.262108 134.138947,87.443970 
	C135.810776,93.868195 138.003540,99.799644 143.812408,103.834824 
	C144.201675,103.774979 144.160782,103.785179 144.116577,104.175262 
	C145.139557,105.970619 146.206726,107.375908 147.273911,108.781189 
	C147.273911,108.781189 147.142380,108.979233 147.114075,109.292091 
	C146.969788,112.972755 146.875824,116.324432 151.780838,116.014023 
	C154.130508,119.300285 150.870453,120.244087 149.171844,122.221466 
	C142.596436,126.017624 136.171143,129.494904 129.303787,132.490082 
	C128.576370,130.719559 128.034500,129.429016 128.045074,128.143005 
	C128.158188,114.396057 128.380020,100.649963 128.468872,86.902969 
	C128.473053,86.255165 127.508232,85.601112 126.994682,84.949966 
	C127.437485,83.806755 127.880287,82.663536 128.365845,81.409943 
	C129.929306,83.139122 131.169312,84.510551 132.765228,85.876617 
	C133.121140,85.871262 133.063461,85.902237 133.117935,86.112793 
	C133.306992,86.641106 133.532318,86.869270 133.848358,87.007835 
z"/>
<path fill="#13161D" opacity="1.000000" stroke="none" 
	d="
M126.798203,85.206444 
	C127.508232,85.601112 128.473053,86.255165 128.468872,86.902969 
	C128.380020,100.649963 128.158188,114.396057 128.045074,128.143005 
	C128.034500,129.429016 128.576370,130.719559 128.923615,132.409729 
	C127.566795,132.635239 126.070297,132.684723 124.747902,132.229019 
	C122.841095,131.571930 121.060715,130.547974 119.102661,129.343109 
	C118.978622,127.944969 118.978317,126.884308 118.966843,125.426598 
	C121.998711,124.086609 121.257996,122.983574 119.196617,121.588890 
	C115.849899,119.324570 112.589645,116.932442 109.142326,114.286667 
	C113.825966,106.259880 118.710220,98.571083 123.438385,90.787476 
	C124.117805,89.668991 124.044731,88.093407 124.229263,86.423004 
	C124.959656,85.898743 125.780685,85.680832 126.798203,85.206444 
z"/>
<path fill="#1B1910" opacity="1.000000" stroke="none" 
	d="
M118.889420,151.106262 
	C117.085442,148.886765 115.349365,146.598587 113.333344,144.132614 
	C110.438835,140.532349 107.824287,137.109909 105.386009,133.201233 
	C105.805534,132.478348 105.972893,132.196579 106.064346,131.869720 
	C112.818604,135.526398 119.572861,139.183075 126.652725,143.318726 
	C126.973640,144.210846 126.968956,144.623978 126.541397,145.026398 
	C123.019547,145.015686 119.920570,145.015686 117.182663,145.015686 
	C117.905296,147.242523 118.498573,149.070755 119.091850,150.898987 
	C119.091850,150.898987 118.957336,151.037598 118.889420,151.106262 
z"/>
<path fill="#302C0B" opacity="1.000000" stroke="none" 
	d="
M126.964264,145.037125 
	C126.968956,144.623978 126.973640,144.210846 126.975914,143.487793 
	C130.679520,141.753601 134.385529,140.329315 138.464905,138.838745 
	C136.860474,140.407990 134.855148,142.011688 132.914459,143.690125 
	C131.592957,144.833054 130.361877,146.080536 128.754868,147.483734 
	C127.934334,146.803192 127.449303,145.920151 126.964264,145.037125 
z"/>
<path fill="#150A00" opacity="1.000000" stroke="none" 
	d="
M105.936432,131.610703 
	C105.972893,132.196579 105.805534,132.478348 105.352913,132.848160 
	C105.365204,132.438095 105.586861,131.894882 105.936432,131.610703 
z"/>
<path fill="#302C0B" opacity="1.000000" stroke="none" 
	d="
M139.720993,138.076935 
	C139.753235,138.290176 139.523361,138.536438 139.035767,138.820358 
	C139.005005,138.608673 139.231934,138.359314 139.720993,138.076935 
z"/>
<path fill="#161721" opacity="1.000000" stroke="none" 
	d="
M126.541397,145.026398 
	C127.449303,145.920151 127.934334,146.803192 128.702820,147.821106 
	C128.850479,150.787094 128.714691,153.618195 128.071136,156.837814 
	C127.288231,157.421646 127.099663,157.680161 126.998833,158.000916 
	C127.000000,158.000000 127.001778,157.998169 127.001778,157.998169 
	C125.921410,157.677414 124.841042,157.356659 123.427322,156.973358 
	C124.185043,154.235840 125.276108,151.560837 126.453262,148.674789 
	C123.478554,146.666794 121.599289,148.595123 119.446396,150.857025 
	C118.498573,149.070755 117.905296,147.242523 117.182663,145.015686 
	C119.920570,145.015686 123.019547,145.015686 126.541397,145.026398 
M125.484161,155.587555 
	C125.484161,155.587555 125.421280,155.480148 125.484161,155.587555 
z"/>
<path fill="#161721" opacity="1.000000" stroke="none" 
	d="
M128.221436,159.864716 
	C127.677086,159.541290 127.359535,159.068298 127.021881,158.296753 
	C127.001778,157.998169 127.000000,158.000000 127.250351,157.995697 
	C127.668297,157.985718 127.835899,157.980042 128.003494,157.974365 
	C128.151733,158.554626 128.299988,159.134888 128.221436,159.864716 
z"/>
<path fill="#1B1910" opacity="1.000000" stroke="none" 
	d="
M128.004272,157.736252 
	C127.835899,157.980042 127.668297,157.985718 127.249184,157.996613 
	C127.099663,157.680161 127.288231,157.421646 127.784126,157.124115 
	C128.004883,157.021912 128.005051,157.498138 128.004272,157.736252 
z"/>
<path fill="#2F2908" opacity="1.000000" stroke="none" 
	d="
M151.745850,115.716141 
	C146.875824,116.324432 146.969788,112.972755 147.159134,109.182098 
	C148.220078,110.128647 149.207626,111.498047 150.448364,113.062973 
	C151.037979,113.978416 151.374420,114.698334 151.745850,115.716141 
z"/>
<path fill="#2F2908" opacity="1.000000" stroke="none" 
	d="
M147.196106,108.467438 
	C146.206726,107.375908 145.139557,105.970619 144.130829,104.176392 
	C144.541824,104.182175 144.894363,104.576897 145.476852,105.115776 
	C146.177307,106.224525 146.647797,107.189102 147.196106,108.467438 
z"/>
<path fill="#2F2908" opacity="1.000000" stroke="none" 
	d="
M133.854492,86.787476 
	C133.532318,86.869270 133.306992,86.641106 133.127441,86.081680 
	C133.082474,85.840012 133.475235,85.977417 133.669525,86.051834 
	C133.863800,86.126259 133.860611,86.567123 133.854492,86.787476 
z"/>
<path fill="#1B1910" opacity="1.000000" stroke="none" 
	d="
M125.452721,155.533844 
	C125.421280,155.480148 125.484161,155.587555 125.452721,155.533844 
z"/>
</svg>
