<svg version="1.1" id="Layer_1" xmlns="http://www.w3.org/2000/svg" xmlns:xlink="http://www.w3.org/1999/xlink" x="0px" y="0px"
	 width="100%" viewBox="0 0 320 320" enable-background="new 0 0 320 320" xml:space="preserve">
<path fill="#000000" opacity="1.000000" stroke="none" 
	d="
M152.596436,196.568237 
	C154.072510,196.474747 155.875580,196.352020 154.071960,194.848663 
	C152.329407,193.396179 150.030350,192.606445 147.964478,191.547577 
	C133.986099,184.382858 121.269836,175.677505 113.447784,161.531647 
	C95.010040,128.187759 115.511337,87.644562 153.302444,82.667740 
	C177.814682,79.439667 197.541977,87.156303 211.006378,108.595749 
	C212.419434,110.845749 215.316254,110.498055 216.828949,113.234428 
	C227.094543,131.804245 221.148453,156.348312 193.395615,157.836899 
	C174.189041,158.867111 154.057983,149.631287 144.769073,129.943283 
	C139.748489,119.302101 138.411240,108.474854 146.064911,98.797646 
	C154.194580,88.518616 165.649658,86.357552 178.140030,88.681435 
	C179.427673,88.921005 180.688004,89.307297 182.491501,89.758118 
	C166.858063,81.182144 136.657639,87.400925 132.226364,111.937813 
	C130.028900,124.105545 134.094147,134.509735 141.667160,143.345612 
	C155.057205,158.968552 171.911102,168.096481 193.073883,167.726669 
	C205.626556,167.507324 215.227509,162.480408 220.703400,150.747040 
	C221.056732,149.989899 221.352936,149.195358 222.378723,149.164093 
	C222.992737,167.579895 205.956314,193.016266 179.755981,200.897598 
	C152.056625,209.229813 123.365128,194.032379 115.203323,178.508484 
	C126.147949,187.499084 138.695892,193.102112 152.596436,196.568237 
M158.163956,138.345306 
	C166.674454,146.096664 177.069321,149.327805 188.190353,150.526093 
	C209.546677,152.827225 222.410263,135.929596 214.611771,115.986755 
	C218.078094,133.414764 206.778549,141.170807 193.733444,141.984329 
	C190.783951,142.168274 187.726471,141.850616 184.818893,141.265747 
	C171.418671,138.570328 160.520111,131.924683 154.130341,119.568520 
	C149.339447,110.304207 154.060379,98.635185 163.308151,94.975021 
	C173.157120,91.076904 190.266876,96.181648 196.301193,104.818588 
	C200.301620,110.544411 197.834930,118.031464 191.231247,120.207184 
	C183.321548,122.813210 173.345551,118.905533 168.999008,111.815086 
	C166.962616,108.493156 167.971329,104.808174 167.460541,101.008446 
	C163.887741,104.168304 162.872391,107.336716 163.788116,111.472046 
	C166.052872,121.699623 179.359650,131.130447 190.793304,130.611282 
	C198.637268,130.255112 205.886627,124.082283 206.626068,117.129662 
	C207.335815,110.456093 202.258865,100.710014 195.802795,96.902664 
	C199.024155,100.847366 202.546555,104.219353 202.238205,110.083511 
	C193.343277,94.780495 180.387817,88.890778 164.156082,92.347328 
	C150.168777,95.325920 143.100006,107.330147 147.298859,121.046646 
	C149.285645,127.536926 152.625824,133.220901 158.163956,138.345306 
z"/>
<path fill="#000000" opacity="1.000000" stroke="none" 
	d="
M121.169785,230.858124 
	C115.768913,235.742126 121.804054,239.507980 122.038445,243.866226 
	C119.342957,245.627975 117.491791,244.900772 115.906425,242.303009 
	C114.714111,240.349304 114.267563,237.914062 112.020042,236.245377 
	C110.929703,237.959473 111.376297,239.787964 111.290298,241.484985 
	C111.194923,243.366852 110.702339,244.839523 108.480186,244.754517 
	C106.341057,244.672668 105.737297,243.231354 105.740692,241.342865 
	C105.751152,235.519745 105.737495,229.696548 105.761124,223.873505 
	C105.765205,222.868774 105.849594,221.479980 106.831215,221.260452 
	C110.738960,220.386475 114.856140,219.764816 118.488182,221.796524 
	C121.800491,223.649384 122.370598,226.954041 121.169785,230.858124 
z"/>
<path fill="#000000" opacity="1.000000" stroke="none" 
	d="
M150.087738,226.197311 
	C149.995972,230.479355 150.132904,234.314148 149.741226,238.094162 
	C149.261169,242.727234 146.372253,245.197800 141.712387,245.259018 
	C137.096909,245.319656 134.198502,243.017517 133.344757,238.413132 
	C132.429443,233.476608 132.884506,228.495712 133.044067,223.532333 
	C133.099472,221.809265 134.025116,220.790970 135.904160,220.841171 
	C137.966782,220.896286 138.293518,222.294601 138.314468,223.895264 
	C138.362244,227.544510 138.340500,231.194702 138.397400,234.843735 
	C138.432465,237.092957 138.692245,239.591385 141.604965,239.476028 
	C144.422684,239.364426 144.631226,236.894730 144.632538,234.631531 
	C144.634277,231.645355 144.541977,228.654953 144.673676,225.674484 
	C144.760376,223.712387 143.850433,220.847046 147.294281,220.884796 
	C150.577744,220.920776 149.806305,223.721725 150.087738,226.197311 
z"/>
<path fill="#000000" opacity="1.000000" stroke="none" 
	d="
M238.410950,226.660355 
	C237.946136,229.875946 240.333008,228.628571 241.653580,228.882858 
	C243.343231,229.208221 245.083282,229.228638 245.162201,231.537262 
	C245.240662,233.832626 243.694763,234.154572 241.867966,234.296600 
	C240.031586,234.439377 237.442719,233.665543 237.429886,236.824814 
	C237.416046,240.236420 240.115494,239.539948 242.166199,239.599457 
	C243.815613,239.647293 245.157440,239.859772 245.233566,241.942688 
	C245.313965,244.142685 244.040253,244.855865 242.129074,244.941635 
	C241.464264,244.971481 240.797943,244.966141 240.132416,244.981476 
	C231.666153,245.176392 231.665802,245.176605 231.665466,236.608261 
	C231.665359,233.778580 231.520004,230.938736 231.714264,228.122360 
	C231.877625,225.753647 230.424866,222.393677 233.064926,221.266159 
	C236.383011,219.849121 240.268555,220.439316 243.889160,221.037766 
	C245.046616,221.229065 245.165482,222.426468 245.160477,223.458130 
	C245.153854,224.822678 244.427200,225.654160 243.119583,225.877853 
	C241.648361,226.129517 240.157074,226.263992 238.410950,226.660355 
z"/>
<path fill="#000000" opacity="1.000000" stroke="none" 
	d="
M161.951599,236.853180 
	C161.952103,232.707657 162.053589,229.038940 161.926498,225.378159 
	C161.810730,222.043121 163.070618,220.166138 166.568756,220.720123 
	C169.316177,221.155228 173.412231,218.894104 174.547974,222.525009 
	C175.951752,227.012802 170.447632,225.385223 168.588654,227.020523 
	C169.368256,229.408920 171.188171,228.653397 172.500656,228.990250 
	C174.025452,229.381561 174.806015,230.252029 174.738297,231.810349 
	C174.668854,233.407806 173.751526,234.395462 172.190750,234.236588 
	C167.813660,233.790985 167.366119,236.394623 167.356689,239.805847 
	C167.351471,241.691589 168.396271,244.702026 164.851868,244.663635 
	C161.669876,244.629166 162.097900,241.951965 161.991684,239.832062 
	C161.950043,239.000626 161.964218,238.166397 161.951599,236.853180 
z"/>
<path fill="#000000" opacity="1.000000" stroke="none" 
	d="
M197.389862,233.869125 
	C192.567352,233.870728 190.768234,235.964981 191.265594,240.430054 
	C191.476242,242.321091 191.695618,244.810486 188.588394,244.671173 
	C185.753098,244.544067 185.830048,242.268082 185.812012,240.249191 
	C185.768921,235.425018 185.968643,230.589737 185.702469,225.779282 
	C185.483795,221.826843 187.022430,220.241516 190.894211,220.657578 
	C193.173141,220.902481 195.528412,220.242813 197.817993,221.167068 
	C200.228210,227.147278 194.330856,225.460495 191.948517,227.139572 
	C193.257584,230.099899 200.888657,227.279205 197.389862,233.869125 
z"/>
<path fill="#000000" opacity="1.000000" stroke="none" 
	d="
M87.100677,220.678009 
	C88.727936,220.673508 89.897659,220.585632 91.049843,220.690491 
	C92.600258,220.831573 94.607651,220.038055 95.392189,222.124374 
	C96.191231,224.249268 95.082642,225.527573 93.106010,226.348145 
	C91.176430,227.149170 91.373634,228.986893 91.355782,230.631332 
	C91.316154,234.282639 91.335762,237.934540 91.307602,241.586014 
	C91.295357,243.174469 91.041435,244.670425 88.987892,244.715790 
	C86.980003,244.760147 85.893326,243.719208 85.857643,241.696365 
	C85.802017,238.543610 85.805534,235.389801 85.746437,232.237137 
	C85.697975,229.651489 86.279045,226.858383 82.924942,225.549713 
	C81.697014,225.070618 81.639252,223.604050 81.996773,222.471405 
	C82.762749,220.044769 84.948769,220.933929 87.100677,220.678009 
z"/>
<path fill="#000000" opacity="1.000000" stroke="none" 
	d="
M215.278366,228.064209 
	C215.281860,230.864471 215.351944,233.185608 215.269241,235.501297 
	C215.180695,237.980515 215.749161,239.752441 218.721451,239.743134 
	C220.602814,239.737244 221.336746,240.852844 221.181335,242.666046 
	C221.032349,244.404297 219.772552,244.639816 218.402206,244.893829 
	C211.406952,246.190521 209.685806,244.845444 209.673279,237.961365 
	C209.665451,233.655167 209.642868,229.348358 209.705231,225.042969 
	C209.733307,223.104858 209.418396,220.788315 212.482376,220.827057 
	C215.489761,220.865097 215.160385,223.145508 215.260345,225.098724 
	C215.302643,225.924850 215.274078,226.754593 215.278366,228.064209 
z"/>
</svg>
